<svg width="286" height="77" viewBox="0 0 286 77" fill="none" xmlns="http://www.w3.org/2000/svg">
<path d="M34.0234 44.8438C33.3906 45.6016 32.4961 46.1914 31.3398 46.6133C30.1836 47.0273 28.9023 47.2344 27.4961 47.2344C26.0195 47.2344 24.7227 46.9141 23.6055 46.2734C22.4961 45.625 21.6367 44.6875 21.0273 43.4609C20.4258 42.2344 20.1172 40.793 20.1016 39.1367V37.9766C20.1016 36.2734 20.3867 34.8008 20.957 33.5586C21.5352 32.3086 22.3633 31.3555 23.4414 30.6992C24.5273 30.0352 25.7969 29.7031 27.25 29.7031C29.2734 29.7031 30.8555 30.1875 31.9961 31.1562C33.1367 32.1172 33.8125 33.5195 34.0234 35.3633H30.6016C30.4453 34.3867 30.0977 33.6719 29.5586 33.2188C29.0273 32.7656 28.293 32.5391 27.3555 32.5391C26.1602 32.5391 25.25 32.9883 24.625 33.8867C24 34.7852 23.6836 36.1211 23.6758 37.8945V38.9844C23.6758 40.7734 24.0156 42.125 24.6953 43.0391C25.375 43.9531 26.3711 44.4102 27.6836 44.4102C29.0039 44.4102 29.9453 44.1289 30.5078 43.5664V40.625H27.3086V38.0352H34.0234V44.8438ZM40.6211 47H37.1055V29.9375H40.6211V47ZM56.3828 32.7852H51.1562V47H47.6406V32.7852H42.4844V29.9375H56.3828V32.7852ZM67.4102 47H63.8945V29.9375H67.4102V47ZM84.5547 47H81.0391L74.1953 35.7734V47H70.6797V29.9375H74.1953L81.0508 41.1875V29.9375H84.5547V47ZM100.117 32.7852H94.8906V47H91.375V32.7852H86.2188V29.9375H100.117V32.7852ZM112.398 39.6055H105.648V44.1758H113.57V47H102.133V29.9375H113.547V32.7852H105.648V36.8516H112.398V39.6055ZM129.133 44.8438C128.5 45.6016 127.605 46.1914 126.449 46.6133C125.293 47.0273 124.012 47.2344 122.605 47.2344C121.129 47.2344 119.832 46.9141 118.715 46.2734C117.605 45.625 116.746 44.6875 116.137 43.4609C115.535 42.2344 115.227 40.793 115.211 39.1367V37.9766C115.211 36.2734 115.496 34.8008 116.066 33.5586C116.645 32.3086 117.473 31.3555 118.551 30.6992C119.637 30.0352 120.906 29.7031 122.359 29.7031C124.383 29.7031 125.965 30.1875 127.105 31.1562C128.246 32.1172 128.922 33.5195 129.133 35.3633H125.711C125.555 34.3867 125.207 33.6719 124.668 33.2188C124.137 32.7656 123.402 32.5391 122.465 32.5391C121.27 32.5391 120.359 32.9883 119.734 33.8867C119.109 34.7852 118.793 36.1211 118.785 37.8945V38.9844C118.785 40.7734 119.125 42.125 119.805 43.0391C120.484 43.9531 121.48 44.4102 122.793 44.4102C124.113 44.4102 125.055 44.1289 125.617 43.5664V40.625H122.418V38.0352H129.133V44.8438ZM138.309 40.7539H135.508V47H131.992V29.9375H138.332C140.348 29.9375 141.902 30.3867 142.996 31.2852C144.09 32.1836 144.637 33.4531 144.637 35.0938C144.637 36.2578 144.383 37.2305 143.875 38.0117C143.375 38.7852 142.613 39.4023 141.59 39.8633L145.281 46.8359V47H141.508L138.309 40.7539ZM135.508 37.9062H138.344C139.227 37.9062 139.91 37.6836 140.395 37.2383C140.879 36.7852 141.121 36.1641 141.121 35.375C141.121 34.5703 140.891 33.9375 140.43 33.4766C139.977 33.0156 139.277 32.7852 138.332 32.7852H135.508V37.9062ZM156.953 43.4844H150.789L149.617 47H145.879L152.23 29.9375H155.488L161.875 47H158.137L156.953 43.4844ZM151.738 40.6367H156.004L153.859 34.25L151.738 40.6367ZM174.906 32.7852H169.68V47H166.164V32.7852H161.008V29.9375H174.906V32.7852ZM190.609 38.8555C190.609 40.5352 190.312 42.0078 189.719 43.2734C189.125 44.5391 188.273 45.5156 187.164 46.2031C186.062 46.8906 184.797 47.2344 183.367 47.2344C181.953 47.2344 180.691 46.8945 179.582 46.2148C178.473 45.5352 177.613 44.5664 177.004 43.3086C176.395 42.043 176.086 40.5898 176.078 38.9492V38.1055C176.078 36.4258 176.379 34.9492 176.98 33.6758C177.59 32.3945 178.445 31.4141 179.547 30.7344C180.656 30.0469 181.922 29.7031 183.344 29.7031C184.766 29.7031 186.027 30.0469 187.129 30.7344C188.238 31.4141 189.094 32.3945 189.695 33.6758C190.305 34.9492 190.609 36.4219 190.609 38.0938V38.8555ZM187.047 38.082C187.047 36.293 186.727 34.9336 186.086 34.0039C185.445 33.0742 184.531 32.6094 183.344 32.6094C182.164 32.6094 181.254 33.0703 180.613 33.9922C179.973 34.9062 179.648 36.25 179.641 38.0234V38.8555C179.641 40.5977 179.961 41.9492 180.602 42.9102C181.242 43.8711 182.164 44.3516 183.367 44.3516C184.547 44.3516 185.453 43.8906 186.086 42.9688C186.719 42.0391 187.039 40.6875 187.047 38.9141V38.082ZM199.48 40.7539H196.68V47H193.164V29.9375H199.504C201.52 29.9375 203.074 30.3867 204.168 31.2852C205.262 32.1836 205.809 33.4531 205.809 35.0938C205.809 36.2578 205.555 37.2305 205.047 38.0117C204.547 38.7852 203.785 39.4023 202.762 39.8633L206.453 46.8359V47H202.68L199.48 40.7539ZM196.68 37.9062H199.516C200.398 37.9062 201.082 37.6836 201.566 37.2383C202.051 36.7852 202.293 36.1641 202.293 35.375C202.293 34.5703 202.062 33.9375 201.602 33.4766C201.148 33.0156 200.449 32.7852 199.504 32.7852H196.68V37.9062Z" fill="white"/>
<path d="M235.021 27.3333C235.021 29.2778 233.445 30.8542 231.5 30.8542C229.555 30.8542 227.979 29.2778 227.979 27.3333C227.979 25.3889 229.555 23.8125 231.5 23.8125C233.445 23.8125 235.021 25.3889 235.021 27.3333Z" fill="white"/>
<path d="M231.5 31.6667C229.11 31.6667 227.167 29.7232 227.167 27.3333C227.167 24.9436 229.11 23 231.5 23C233.89 23 235.833 24.9436 235.833 27.3333C235.833 29.7232 233.89 31.6667 231.5 31.6667ZM231.5 24.625C230.006 24.625 228.792 25.8406 228.792 27.3333C228.792 28.8262 230.006 30.0417 231.5 30.0417C232.994 30.0417 234.208 28.8262 234.208 27.3333C234.208 25.8406 232.994 24.625 231.5 24.625Z" fill="white"/>
<path d="M235.021 44.6667C235.021 46.6111 233.445 48.1875 231.5 48.1875C229.555 48.1875 227.979 46.6111 227.979 44.6667C227.979 42.7221 229.555 41.1457 231.5 41.1457C233.445 41.1457 235.021 42.7221 235.021 44.6667Z" fill="white"/>
<path d="M231.5 49C229.11 49 227.167 47.0564 227.167 44.6667C227.167 42.2768 229.11 40.3332 231.5 40.3332C233.89 40.3332 235.833 42.2768 235.833 44.6667C235.833 47.0564 233.89 49 231.5 49ZM231.5 41.9582C230.006 41.9582 228.792 43.1738 228.792 44.6667C228.792 46.1594 230.006 47.375 231.5 47.375C232.994 47.375 234.208 46.1594 234.208 44.6667C234.208 43.1738 232.994 41.9582 231.5 41.9582Z" fill="white"/>
<path d="M219.854 36C219.854 37.9446 218.278 39.5208 216.333 39.5208C214.389 39.5208 212.812 37.9446 212.812 36C212.812 34.0555 214.389 32.4793 216.333 32.4793C218.278 32.4793 219.854 34.0555 219.854 36Z" fill="white"/>
<path d="M216.333 40.3333C213.944 40.3333 212 38.3899 212 36C212 33.6102 213.944 31.6668 216.333 31.6668C218.723 31.6668 220.667 33.6102 220.667 36C220.667 38.3899 218.723 40.3333 216.333 40.3333ZM216.333 33.2918C214.839 33.2918 213.625 34.5072 213.625 36C213.625 37.4929 214.839 38.7083 216.333 38.7083C217.827 38.7083 219.042 37.4929 219.042 36C219.042 34.5072 217.827 33.2918 216.333 33.2918Z" fill="white"/>
<path d="M218.891 35.4801C218.514 35.4801 218.148 35.284 217.949 34.9331C217.653 34.4141 217.835 33.7522 218.354 33.4552L228.406 27.7245C228.925 27.4266 229.587 27.6087 229.884 28.1296C230.179 28.6485 229.997 29.3104 229.478 29.6074L219.426 35.3381C219.257 35.4345 219.073 35.4801 218.891 35.4801Z" fill="white"/>
<path d="M228.942 44.4176C228.76 44.4176 228.576 44.372 228.407 44.2756L218.355 38.5448C217.836 38.2491 217.654 37.5871 217.95 37.067C218.244 36.5471 218.907 36.364 219.427 36.6619L229.48 42.3927C229.999 42.6885 230.18 43.3504 229.885 43.8705C229.684 44.2214 229.318 44.4176 228.942 44.4176Z" fill="white"/>
<path d="M266.189 29.6369C264.982 27.5952 263.344 25.9787 261.276 24.7872C259.208 23.5956 256.949 23 254.5 23C252.051 23 249.792 23.5958 247.724 24.7872C245.655 25.9787 244.018 27.5952 242.811 29.6369C241.604 31.6786 241 33.9082 241 36.3255C241 39.2292 241.858 41.8404 243.575 44.1595C245.292 46.4789 247.51 48.0838 250.228 48.9744C250.545 49.0324 250.779 48.9916 250.931 48.8531C251.084 48.7145 251.16 48.5408 251.16 48.3328C251.16 48.2981 251.157 47.9859 251.151 47.3959C251.145 46.8058 251.142 46.2911 251.142 45.8518L250.738 45.9209C250.48 45.9675 250.155 45.9873 249.762 45.9817C249.37 45.9762 248.962 45.9357 248.541 45.8602C248.119 45.7854 247.726 45.6119 247.363 45.34C247 45.0682 246.742 44.7123 246.589 44.2731L246.414 43.8738C246.297 43.608 246.112 43.3127 245.86 42.989C245.608 42.665 245.353 42.4454 245.096 42.3297L244.972 42.2428C244.89 42.185 244.814 42.1153 244.744 42.0344C244.674 41.9535 244.621 41.8725 244.586 41.7915C244.551 41.7103 244.58 41.6438 244.674 41.5916C244.768 41.5394 244.937 41.514 245.183 41.514L245.535 41.5659C245.769 41.6122 246.059 41.7507 246.405 41.9822C246.751 42.2135 247.035 42.5142 247.257 42.8842C247.527 43.3586 247.852 43.7201 248.233 43.9688C248.614 44.2176 248.998 44.3417 249.384 44.3417C249.771 44.3417 250.105 44.3128 250.386 44.2553C250.667 44.1974 250.931 44.1104 251.177 43.9949C251.283 43.2195 251.57 42.6239 252.038 42.2075C251.371 42.1382 250.77 42.0339 250.237 41.8951C249.704 41.7562 249.153 41.5307 248.585 41.2181C248.016 40.9059 247.544 40.5182 247.169 40.0558C246.795 39.593 246.487 38.9855 246.247 38.2338C246.007 37.4818 245.886 36.6143 245.886 35.6312C245.886 34.2312 246.349 33.04 247.275 32.0566C246.842 31.0042 246.882 29.8243 247.398 28.5172C247.738 28.413 248.242 28.4912 248.91 28.7514C249.578 29.0116 250.067 29.2346 250.378 29.4195C250.688 29.6043 250.937 29.7609 251.125 29.8879C252.215 29.5873 253.34 29.4369 254.5 29.4369C255.66 29.4369 256.785 29.5873 257.875 29.8879L258.543 29.4717C259 29.194 259.539 28.9394 260.16 28.7081C260.781 28.4768 261.256 28.4132 261.584 28.5174C262.111 29.8246 262.158 31.0043 261.724 32.0568C262.65 33.0401 263.113 34.2317 263.113 35.6313C263.113 36.6145 262.993 37.4847 262.753 38.2425C262.513 39.0004 262.203 39.6073 261.822 40.0645C261.441 40.5215 260.966 40.9062 260.398 41.2183C259.829 41.5307 259.278 41.7561 258.745 41.8951C258.212 42.034 257.611 42.1384 256.944 42.2078C257.553 42.7282 257.857 43.5495 257.857 44.6715V48.3323C257.857 48.5403 257.931 48.7139 258.077 48.8527C258.224 48.9912 258.455 49.0319 258.772 48.9739C261.491 48.0834 263.708 46.4784 265.425 44.1591C267.141 41.8399 268 39.2288 268 36.325C267.999 33.908 267.396 31.6786 266.189 29.6369Z" fill="white"/>
<rect x="2.5" y="2.5" width="281" height="72" stroke="white" stroke-width="5"/>
</svg>
